<?xml version="1.0" standalone="no"?>
<!DOCTYPE svg PUBLIC "-//W3C//DTD SVG 20010904//EN"
 "http://www.w3.org/TR/2001/REC-SVG-20010904/DTD/svg10.dtd">
<svg version="1.0" xmlns="http://www.w3.org/2000/svg"
 width="1160.000000pt" height="1280.000000pt" viewBox="0 0 1160.000000 1280.000000"
 preserveAspectRatio="xMidYMid meet">
<g transform="translate(0.000000,1280.000000) scale(0.100000,-0.100000)"
fill="#000000" stroke="none">
<path d="M5270 12071 l0 -728 -41 -46 c-36 -42 -39 -50 -33 -82 4 -21 23 -56
45 -81 46 -53 56 -97 35 -147 -35 -85 -149 -103 -213 -33 -27 29 -33 44 -33
78 0 53 28 101 71 123 25 13 30 21 25 38 -23 76 -21 85 28 137 l46 49 0 690
c0 379 -3 696 -6 705 -4 11 -19 16 -45 16 l-39 0 0 -730 c0 -835 12 -740 -104
-805 l-66 -37 0 -122 0 -122 63 -62 63 -62 124 0 125 0 72 -72 73 -72 0 -204
0 -203 -87 -90 c-67 -70 -87 -97 -85 -115 6 -41 -32 -109 -71 -127 -43 -21
-67 -21 -112 -3 -45 19 -75 69 -75 124 0 85 98 146 181 112 30 -13 31 -12 100
56 l69 68 0 181 0 181 -48 47 -48 47 -124 0 -125 0 -87 87 -88 88 0 147 c0
167 -8 152 108 218 l62 35 0 713 0 713 -67 -3 -68 -3 -5 -662 -5 -662 -52 -53
-53 -54 0 -209 0 -210 143 -143 142 -142 40 20 c21 11 51 20 65 20 61 0 130
-68 130 -128 0 -38 -31 -93 -64 -113 -76 -46 -180 0 -193 85 -5 36 -24 60
-169 206 l-164 166 0 242 0 243 50 53 50 53 0 642 0 642 -22 -3 -23 -3 -5
-572 -5 -572 -37 -38 -38 -39 0 -330 0 -329 125 -125 125 -124 2 -411 3 -410
77 -46 c71 -42 82 -45 130 -42 66 5 112 -21 134 -74 39 -91 -49 -200 -142
-177 -72 17 -110 73 -102 149 l5 44 -88 51 -89 51 0 416 0 416 -130 132 -130
132 0 352 0 352 45 48 45 48 -2 544 -3 544 -60 -3 c-33 -2 -63 -7 -67 -11 -4
-3 -8 -433 -8 -955 l-1 -949 28 -29 c15 -17 57 -51 93 -76 118 -83 150 -122
150 -183 0 -63 -67 -129 -130 -129 -37 0 -91 32 -111 64 -32 52 -23 111 23
162 19 21 18 21 -56 96 l-74 74 5 450 c3 247 2 677 -2 957 l-7 507 -32 0 c-17
0 -41 -3 -53 -6 l-23 -6 0 -451 0 -450 48 -81 47 -81 3 -596 2 -595 129 -125
c70 -68 148 -140 172 -160 42 -35 44 -38 44 -92 0 -48 -4 -60 -29 -86 -55 -57
-135 -59 -190 -5 -48 49 -47 126 5 179 l29 31 -120 119 -120 120 0 595 0 595
-50 85 -50 85 0 453 0 454 -42 -7 c-24 -3 -58 -9 -75 -12 l-33 -5 0 -499 0
-499 43 0 c54 0 99 -28 121 -75 42 -88 -22 -185 -121 -185 -35 0 -88 31 -104
61 -9 17 -11 166 -10 596 2 513 1 574 -14 579 -14 6 -380 -67 -428 -85 -17 -7
-15 -12 22 -55 l41 -47 0 -347 0 -347 340 -340 339 -339 3 -351 3 -350 48 -81
47 -81 0 -173 0 -172 82 -85 c81 -83 83 -84 123 -78 99 14 176 -95 130 -185
-25 -47 -62 -70 -116 -70 -62 0 -115 42 -125 98 -5 30 -27 58 -113 145 l-106
107 -5 198 -5 197 -40 65 -40 64 -5 343 -5 343 -342 343 -343 343 0 355 0 355
-48 47 c-26 26 -57 47 -68 47 -26 0 -114 -30 -114 -39 0 -3 32 -38 70 -76 l70
-69 0 -336 0 -335 345 -345 345 -346 0 -343 0 -343 85 -88 c79 -82 85 -91 85
-130 0 -60 -31 -105 -85 -125 -51 -20 -98 -10 -132 28 -47 51 -54 93 -26 152
l17 35 -37 38 -37 38 0 339 0 340 -342 342 -343 343 -3 343 -3 343 -78 78 -79
78 -97 -32 -97 -32 166 -167 166 -167 0 -235 0 -234 155 -155 155 -155 0 -56
0 -56 42 -6 c85 -11 138 -107 102 -182 -25 -54 -67 -77 -128 -72 -42 4 -55 10
-84 42 -32 35 -33 40 -27 88 3 29 8 90 11 137 l5 85 -156 155 -155 155 0 230
0 230 -162 162 c-148 149 -187 178 -202 155 -3 -5 71 -84 165 -178 l169 -169
0 -214 0 -214 150 -152 150 -152 0 -181 0 -181 54 -30 c50 -29 60 -31 157 -31
l104 0 88 -90 87 -90 0 -588 0 -588 53 -52 53 -52 890 0 890 0 72 73 c70 71
72 73 62 106 -24 84 37 161 125 161 77 0 125 -51 125 -133 0 -80 -69 -134
-153 -122 -42 6 -43 6 -122 -74 l-80 -81 -920 0 -921 0 -72 73 -72 72 0 586 0
585 -68 67 -68 67 -89 0 c-82 0 -94 3 -158 36 -38 19 -70 34 -72 32 -2 -2 38
-43 89 -90 l92 -86 49 5 c83 10 145 -42 145 -122 0 -75 -52 -127 -126 -129
-80 -2 -140 70 -129 155 6 40 4 49 -14 61 -12 8 -80 72 -151 142 l-130 127 0
142 0 141 -145 146 -145 147 0 244 0 244 -156 156 c-99 99 -162 155 -171 152
-10 -4 41 -61 151 -173 l166 -167 0 -239 0 -238 145 -146 145 -147 0 -148 0
-148 120 -122 120 -121 0 -390 0 -390 58 -57 57 -57 52 7 c65 7 106 -9 133
-52 59 -96 -25 -223 -132 -200 -66 15 -117 92 -103 156 6 28 1 37 -69 109
l-76 78 0 389 0 388 -115 115 -115 115 0 144 0 144 -150 152 -150 152 0 239 0
239 -163 163 -163 163 -42 -16 c-23 -10 -42 -20 -42 -23 0 -4 70 -76 155 -162
l155 -156 0 -260 0 -259 150 -150 150 -150 0 -223 0 -224 35 30 c19 17 49 34
67 37 64 12 131 -31 149 -97 8 -32 6 -46 -10 -82 -43 -98 -175 -104 -230 -11
-17 30 -26 36 -49 33 -27 -3 -27 -4 -30 -87 l-3 -85 67 -67 c63 -63 68 -66 97
-58 94 27 183 -65 157 -161 -34 -126 -215 -125 -250 1 -5 19 -6 47 -1 64 7 28
3 36 -65 107 l-74 77 -2 243 -3 243 -180 3 -181 2 -84 85 -85 85 -3 423 -3
423 -112 112 c-86 85 -115 109 -127 102 -12 -7 8 -32 98 -123 l112 -114 0
-419 0 -419 180 -180 180 -180 0 -421 0 -422 34 -20 c120 -71 78 -242 -59
-242 -20 0 -49 7 -65 15 -77 40 -80 170 -6 219 l26 16 0 407 0 407 -185 186
-185 186 0 425 0 424 -103 103 c-56 56 -107 102 -112 102 -6 0 -20 -8 -33 -18
l-22 -17 100 -100 100 -100 0 -425 0 -425 107 -108 108 -107 5 -602 5 -602 80
-48 80 -47 168 -1 169 0 73 66 c80 72 92 89 74 111 -20 23 -15 100 7 131 48
65 133 77 194 26 44 -38 56 -93 31 -148 -22 -51 -61 -76 -118 -76 -35 0 -46
-8 -128 -90 l-90 -90 -201 0 -202 0 -106 61 -106 62 0 601 0 601 -110 110
-110 110 0 427 c0 274 -4 429 -10 433 -7 4 -10 -141 -10 -426 l0 -433 90 -92
c50 -50 90 -99 90 -107 0 -9 9 -31 20 -49 38 -62 15 -145 -51 -180 -42 -22
-71 -23 -116 -1 -96 45 -95 184 2 230 l35 17 -70 72 -70 72 0 434 0 433 -89
89 -90 89 -36 -27 -37 -28 91 -93 91 -92 0 -643 0 -644 73 -72 73 -73 41 14
c52 18 99 6 139 -36 25 -26 29 -38 29 -84 0 -46 -4 -58 -29 -84 -59 -61 -133
-62 -191 -1 -21 22 -29 42 -33 82 -4 51 -8 56 -93 144 l-89 91 0 639 0 639
-85 85 c-66 66 -87 82 -97 72 -9 -9 -5 -19 20 -45 l32 -33 0 -253 0 -253 30
-29 c57 -57 47 -151 -20 -197 -50 -34 -120 -27 -162 16 -63 63 -43 171 39 209
l38 18 3 226 c2 216 1 227 -19 252 -11 15 -26 27 -34 27 -13 0 -113 -74 -127
-94 -4 -6 -8 -155 -8 -330 l0 -319 159 -161 c133 -135 160 -167 166 -199 21
-111 -97 -196 -192 -137 -80 49 -83 161 -6 218 l28 21 -112 113 -113 113 -2
307 -3 308 -77 -68 -78 -67 0 -112 c0 -103 2 -113 21 -123 11 -6 29 -26 39
-43 78 -128 -93 -262 -199 -156 -59 59 -49 152 22 198 37 24 37 25 37 90 l-1
66 -84 -89 -85 -88 0 -117 c0 -113 1 -118 26 -142 24 -23 33 -24 187 -29 l161
-5 50 -85 51 -85 3 -165 3 -165 70 -71 c70 -71 71 -71 117 -67 120 12 186
-131 101 -216 -57 -58 -151 -49 -197 19 -20 30 -23 43 -18 90 l5 55 -79 81
-80 82 0 166 0 167 -37 64 -37 65 -152 0 -151 0 -52 54 -51 55 0 71 c0 45 -4
69 -10 65 -6 -4 -10 -68 -10 -159 l0 -153 64 -61 c77 -74 97 -78 125 -24 18
35 70 62 119 62 34 0 49 -6 78 -33 31 -28 37 -41 41 -83 3 -37 -1 -57 -15 -80
-21 -32 -76 -64 -111 -64 -27 0 -101 37 -101 50 0 6 -25 10 -56 10 l-57 0 -93
92 -94 92 0 105 -1 106 -19 -24 c-18 -21 -20 -39 -20 -159 l0 -136 183 -184
183 -184 37 10 c158 44 235 -185 82 -243 -35 -14 -50 -15 -78 -6 -51 17 -88
61 -94 112 -5 41 -17 56 -209 249 l-203 205 -3 85 -3 85 -57 -91 -58 -91 0
-80 0 -81 68 -71 c48 -51 73 -70 84 -66 27 11 105 -30 122 -64 38 -73 8 -157
-67 -186 -56 -21 -103 -9 -142 36 -33 40 -40 73 -27 118 l12 36 -78 78 c-91
92 -82 96 -157 -67 l-49 -107 115 -115 114 -115 200 6 c110 2 224 6 253 7 50
3 56 1 88 -34 29 -32 34 -45 34 -87 0 -109 -117 -167 -209 -102 -27 20 -42 21
-232 21 l-202 0 -118 117 -118 116 -12 -29 c-41 -104 -139 -422 -139 -451 0
-10 38 -13 198 -13 l197 0 84 -84 83 -84 44 20 c36 15 51 17 82 9 127 -35 129
-215 3 -251 -48 -13 -89 -2 -127 37 -28 27 -34 41 -34 75 0 39 -6 47 -83 125
l-83 83 -186 0 c-136 0 -188 -3 -196 -13 -11 -13 -57 -237 -68 -331 -4 -31 -3
-56 2 -56 5 0 39 30 75 66 l67 66 -5 57 c-4 47 -1 61 19 91 27 40 89 67 132
56 43 -11 96 -66 102 -106 8 -49 -17 -105 -58 -130 -25 -16 -45 -20 -85 -17
l-52 4 -111 -112 -110 -111 -10 -88 c-6 -49 -8 -91 -5 -94 3 -3 58 47 123 111
l117 117 113 0 112 0 0 -275 0 -275 -33 -37 c-30 -35 -32 -41 -23 -75 13 -50
-9 -106 -54 -136 -29 -19 -44 -23 -84 -19 -98 9 -148 110 -96 195 25 41 81 66
130 58 31 -5 41 -1 63 22 l27 29 -2 219 -3 219 -55 3 -55 2 -150 -147 -150
-148 0 -195 c0 -218 13 -400 28 -400 5 0 32 20 58 45 l48 45 193 0 193 0 83
83 c55 56 82 90 82 106 0 60 61 111 133 111 92 0 155 -98 113 -178 -33 -64
-94 -90 -159 -67 l-42 14 -91 -89 -91 -90 -194 0 -193 0 -28 -27 -28 -27 0
-291 c0 -258 2 -305 21 -396 12 -57 23 -106 25 -108 7 -7 64 52 64 66 0 7 -9
30 -20 50 -25 47 -25 89 0 130 23 38 67 63 112 63 45 0 78 -19 105 -59 44 -65
20 -151 -51 -185 -21 -10 -40 -25 -43 -34 -3 -9 -35 -47 -71 -84 -64 -65 -64
-67 -58 -110 10 -67 18 -74 53 -48 114 84 255 -41 189 -168 -21 -40 -63 -62
-121 -62 -25 0 -45 -2 -45 -4 0 -3 4 -16 10 -30 9 -24 14 -26 75 -26 63 0 67
2 110 41 l45 42 0 411 0 412 -68 67 -67 67 -50 -6 c-42 -5 -56 -2 -85 18 -47
32 -62 63 -57 121 6 68 46 108 114 114 36 3 56 -1 79 -15 34 -22 64 -76 64
-118 0 -21 19 -48 85 -115 l85 -86 0 -455 0 -455 -74 -71 -74 -72 -72 0 c-62
0 -71 -2 -66 -16 3 -9 6 -17 6 -19 0 -2 20 -13 45 -24 79 -35 106 -115 64
-190 -20 -37 -20 -37 -1 -86 l20 -50 66 -5 66 -5 78 -78 c76 -75 79 -77 108
-67 62 24 142 -18 164 -86 26 -77 -40 -164 -125 -164 -78 0 -129 58 -127 144
1 50 -1 53 -61 114 -50 51 -67 62 -94 62 -23 0 -33 -5 -33 -15 0 -37 230 -450
288 -517 8 -10 33 -27 56 -38 50 -24 76 -64 76 -119 0 -31 9 -53 36 -92 l37
-50 38 37 39 38 0 89 0 90 -45 41 c-42 40 -45 46 -45 94 0 45 5 57 33 88 26
28 42 37 78 41 64 7 105 -16 131 -74 27 -61 14 -109 -42 -154 l-40 -32 0 -111
0 -110 -51 -52 -51 -52 61 -89 62 -88 845 -5 845 -5 79 -81 80 -81 0 -488 c0
-482 0 -488 22 -526 l22 -39 1919 0 1919 0 62 -60 63 -60 434 0 434 0 138 138
137 137 0 160 0 159 173 173 173 173 418 0 419 0 91 -90 92 -90 178 0 178 0
72 -70 73 -70 137 0 138 0 77 -74 c65 -63 82 -74 120 -79 108 -14 166 -120
117 -215 -46 -88 -176 -97 -234 -15 -28 40 -34 78 -22 125 l12 41 -58 58 -58
59 -139 0 -138 0 -74 70 -74 70 -178 0 -178 0 -90 90 -90 90 -371 0 -370 0
-140 -140 c-76 -78 -142 -148 -146 -158 -4 -9 -7 -82 -7 -162 l-1 -146 -173
-172 -173 -172 -462 0 -463 0 -64 60 -64 60 -1925 0 c-1678 0 -1926 2 -1939
15 -8 8 -31 43 -51 79 l-36 64 0 479 0 479 -53 52 -53 52 -781 -2 -782 -3 57
-88 57 -88 645 1 645 0 60 -60 60 -61 3 -423 3 -423 128 -126 128 -127 1905 0
1906 0 70 -40 69 -40 499 0 499 0 213 213 212 212 0 154 0 155 140 140 139
141 327 3 326 3 87 -86 87 -85 153 0 153 0 80 -77 c62 -61 85 -77 104 -75 70
9 143 -49 151 -122 7 -63 -2 -90 -44 -131 l-36 -35 256 0 255 0 37 51 c20 28
69 88 108 132 40 45 83 95 95 111 31 41 30 100 -5 154 l-27 42 -314 0 -314 0
-82 80 -82 80 -205 0 -205 0 -177 178 -177 178 0 94 0 94 -115 116 -115 117 0
496 0 497 -24 15 c-56 37 -73 137 -33 196 65 98 201 84 242 -26 29 -76 -3
-155 -75 -185 l-30 -12 0 -481 0 -480 115 -117 115 -116 0 -95 0 -95 153 -152
153 -152 210 0 210 0 74 -75 74 -75 258 0 c142 0 258 4 258 8 0 5 -8 16 -18
25 -16 15 -47 17 -231 17 l-213 0 -93 90 -93 90 -158 0 -159 0 -76 76 c-76 76
-77 76 -110 65 -60 -19 -129 11 -160 71 -33 65 -18 132 40 181 25 21 43 27 79
27 89 0 142 -57 142 -153 0 -41 4 -48 64 -105 l64 -62 159 0 158 0 85 -85 85
-85 172 0 c159 0 172 1 178 19 3 10 24 32 47 47 l41 29 -181 5 -182 5 -94 94
-95 94 -35 -30 c-63 -56 -133 -55 -191 3 -104 103 -4 276 139 240 14 -3 88
-70 167 -151 l143 -145 235 2 235 3 23 34 c13 19 23 38 23 42 0 5 -60 9 -133
9 l-133 0 -29 -30 c-43 -45 -93 -57 -149 -36 -145 55 -106 276 49 276 50 0 91
-24 120 -70 l25 -40 130 0 c150 0 153 2 121 74 l-20 46 -55 0 c-38 0 -66 6
-88 20 -32 19 -51 20 -678 20 l-645 0 -85 79 -85 79 -3 898 -2 899 -67 67
c-48 48 -75 68 -102 73 -50 9 -69 22 -91 58 -38 62 -18 152 40 182 106 55 220
-36 189 -149 l-11 -39 65 -66 c36 -36 70 -76 76 -88 7 -15 11 -129 11 -350 l0
-328 23 39 c23 41 76 76 115 76 34 0 84 -24 111 -54 18 -19 25 -41 29 -83 3
-45 10 -64 30 -85 l26 -28 259 0 259 0 62 -60 63 -60 128 0 129 0 161 160 161
160 120 0 119 0 154 154 154 155 -17 26 -18 27 -167 -166 -167 -166 -210 0
-210 0 -28 -29 -28 -29 23 -31 c17 -23 23 -45 23 -81 0 -142 -184 -202 -266
-87 -30 41 -34 113 -10 157 21 40 90 80 136 80 21 0 43 13 82 50 l53 50 204 0
204 0 154 155 c85 85 155 160 156 167 2 7 -4 22 -12 33 -14 18 -23 11 -178
-143 l-163 -162 -260 0 -259 0 -143 -142 -142 -143 -160 0 -159 0 -189 185
c-103 102 -201 193 -216 204 -74 49 -66 170 15 212 61 31 139 10 173 -46 22
-39 21 -111 -3 -142 l-20 -25 142 -141 142 -142 117 0 117 0 138 140 138 140
260 0 260 0 157 158 158 157 -25 30 -24 30 -143 -142 -143 -143 -264 0 -264 0
-137 -135 -137 -135 -128 0 -128 0 -76 75 -76 74 -3 243 -3 243 -26 27 -26 27
-29 -24 c-75 -64 -177 -33 -209 62 -16 49 10 114 57 144 66 40 169 5 190 -65
4 -12 33 -49 65 -83 l59 -61 0 -239 0 -239 53 -52 53 -52 99 0 99 0 131 130
132 130 264 0 264 0 139 139 c98 98 137 144 133 155 -4 9 -12 16 -19 16 -7 0
-67 -54 -133 -120 l-120 -120 -320 0 -321 0 -36 -37 c-30 -32 -35 -45 -35 -83
1 -77 -51 -130 -128 -130 -84 0 -130 56 -126 152 2 39 58 93 106 102 30 6 56
23 102 67 l61 59 324 0 323 0 108 108 c59 59 107 112 107 118 0 7 -7 17 -16
24 -13 12 -29 -1 -117 -88 l-102 -102 -393 0 -392 0 -39 25 c-53 33 -71 61
-71 113 0 81 48 132 125 132 68 0 107 -33 130 -110 l11 -35 283 -3 284 -2 94
93 c90 88 94 95 82 115 -8 12 -18 22 -24 22 -6 0 -48 -38 -95 -85 l-85 -85
-230 0 -230 0 -160 160 -160 160 -325 0 -326 0 -49 -50 -49 -50 -161 0 -161 0
-57 58 -57 58 0 184 0 185 86 86 86 86 -17 49 c-15 44 -15 51 0 91 52 135 249
96 247 -49 -1 -70 -61 -128 -133 -128 -31 0 -45 -10 -117 -84 l-82 -84 0 -155
0 -155 40 -36 40 -36 125 0 125 0 60 55 60 55 342 0 342 0 166 -165 166 -165
195 0 c141 0 199 3 210 13 8 6 45 44 82 83 47 50 66 76 61 88 -3 9 -11 16 -17
16 -6 0 -48 -36 -93 -80 l-82 -80 -162 0 -163 0 -176 175 -177 175 -407 0
-406 0 -38 -38 c-49 -49 -99 -61 -150 -35 -52 26 -78 65 -77 117 3 131 177
177 239 62 l20 -36 430 0 430 0 170 -170 170 -170 135 0 136 0 74 75 c49 50
71 78 64 85 -6 6 -35 -15 -84 -65 l-74 -75 -111 0 -110 0 -87 85 -88 85 0 118
0 118 -42 41 -43 42 -182 3 -183 3 -82 82 -83 82 -43 -12 c-38 -10 -48 -9 -79
8 -53 29 -78 68 -77 119 2 76 54 126 135 126 35 0 48 -6 80 -39 36 -35 39 -43
39 -93 0 -53 0 -54 73 -126 l72 -72 176 0 176 0 71 -74 72 -74 0 -114 0 -114
63 -62 63 -62 78 0 79 0 70 70 69 69 -32 41 c-17 22 -35 40 -40 40 -4 0 -10
-14 -14 -31 -14 -73 -105 -116 -174 -82 -42 20 -82 74 -82 110 0 69 61 133
128 133 38 0 40 8 7 44 -19 21 -33 26 -72 26 l-48 0 -120 120 c-66 66 -125
120 -131 120 -6 0 -16 -11 -22 -25 -6 -14 -26 -34 -44 -45 -129 -78 -264 93
-157 199 56 57 153 49 194 -17 13 -20 28 -31 44 -32 17 0 60 -35 144 -117
l120 -118 -73 95 c-40 52 -114 150 -164 218 l-91 122 -499 0 -500 0 -251 250
-251 250 -79 0 -80 0 -218 -218 -217 -218 2 -259 3 -260 85 -3 c52 -2 87 -8
92 -15 4 -7 8 -124 8 -262 0 -137 -4 -255 -8 -262 -5 -7 -40 -13 -92 -15 l-85
-3 -3 -298 c-2 -238 0 -298 10 -294 66 28 86 29 124 11 72 -35 102 -111 69
-174 -39 -76 -131 -95 -200 -40 -32 26 -46 30 -96 30 -33 0 -60 1 -61 3 -1 1
-5 173 -8 382 l-5 380 -170 0 -170 0 -3 -440 -2 -439 107 -108 108 -108 451 0
451 0 71 -74 72 -74 0 -484 c0 -372 -3 -488 -12 -501 -9 -11 -31 -17 -68 -19
l-55 -3 -3 -81 -3 -82 112 -77 111 -77 52 16 c61 19 105 10 148 -31 61 -58 57
-155 -7 -212 -30 -26 -44 -31 -89 -31 -85 0 -137 55 -140 149 l-1 45 -127 89
-128 88 0 104 0 104 -67 3 -68 3 -3 233 c-3 266 9 238 -109 267 -34 8 -69 18
-78 21 -10 4 -47 -25 -115 -92 l-100 -98 0 -605 0 -604 -145 -147 -145 -146 0
-116 c0 -64 -3 -123 -6 -132 -5 -13 -24 -16 -100 -16 l-94 0 0 175 0 175 76
80 c51 53 72 81 63 85 -8 2 -39 6 -69 7 l-55 3 -3 242 -2 242 -52 16 c-28 8
-57 15 -63 15 -6 0 -68 -58 -138 -128 l-127 -129 0 -304 0 -305 -63 -62 -63
-62 -1914 2 -1915 3 -3 470 -2 471 -103 102 -102 102 -695 2 -695 3 0 515 0
515 24 3 23 4 -7 106 c-10 163 -9 185 9 219 42 83 152 117 230 71 79 -46 106
-120 106 -290 l0 -107 38 -3 c36 -3 37 -4 44 -53 3 -27 7 -143 7 -256 1 -113
4 -241 8 -283 l6 -78 174 174 173 173 0 860 0 860 150 150 150 150 0 82 0 83
-259 0 c-143 0 -266 3 -275 6 -13 5 -16 23 -16 90 l0 84 -211 0 c-196 0 -214
2 -245 20 -45 29 -71 95 -54 144 12 38 60 85 88 87 9 1 94 1 187 -1 l170 -2
55 56 54 56 1073 0 1073 0 11 27 c5 14 8 32 5 39 -8 21 -129 86 -169 92 -86
11 -140 109 -101 181 37 67 59 76 210 79 l135 4 104 -103 104 -102 3 -101 3
-101 48 -3 47 -3 0 -285 0 -284 -253 0 c-140 0 -257 -3 -260 -6 -3 -4 -2 -15
4 -25 9 -18 27 -19 314 -19 l305 0 0 345 c0 265 3 345 12 345 7 0 47 -36 90
-80 l77 -80 677 0 677 0 71 39 c135 75 148 70 -190 71 -220 0 -303 3 -312 12
-7 7 -12 36 -12 65 l0 53 -162 2 -163 3 0 120 0 120 126 3 127 3 71 68 71 68
0 133 0 134 150 151 150 151 0 104 0 104 -165 166 -165 166 0 1376 0 1376 -31
6 c-17 3 -56 6 -85 6 l-54 0 0 -576 0 -577 60 -104 60 -105 0 -561 0 -562 -82
-82 -81 -82 -1 -55 c-1 -43 -6 -60 -26 -81 -88 -96 -230 -45 -230 80 0 67 44
114 120 130 24 5 56 27 103 73 l67 66 0 522 0 521 -60 104 -60 104 0 597 0
597 -34 6 c-19 4 -42 5 -53 3 -17 -3 -18 -31 -21 -707 l-2 -703 40 -73 c26
-47 40 -85 40 -109 0 -32 4 -38 40 -56 71 -36 96 -102 66 -175 -39 -91 -173
-99 -226 -12 -34 55 -22 125 29 171 32 29 27 78 -16 149 l-38 62 -5 730 -5
730 -37 3 -38 3 0 -932 0 -933 138 -140 c75 -77 149 -148 164 -158 82 -53 74
-179 -15 -221 -43 -21 -67 -21 -112 -3 -86 36 -99 154 -26 220 l22 20 -123
123 -123 123 -3 950 -2 950 -45 0 -45 0 0 -729z m-1033 -2348 c52 -24 75 -67
70 -127 -4 -42 -10 -55 -41 -83 -30 -28 -43 -33 -85 -33 -38 0 -56 6 -80 25
-58 50 -65 138 -13 188 50 48 94 57 149 30z m1466 3 c135 -57 101 -246 -44
-246 -135 0 -178 184 -58 243 42 20 60 21 102 3z m-3427 -982 c42 -20 79 -91
70 -135 -21 -109 -149 -146 -223 -65 -28 30 -33 44 -33 84 0 54 17 84 64 113
38 23 77 24 122 3z m525 -20 c85 -81 32 -224 -84 -224 -74 0 -130 57 -130 131
0 109 136 168 214 93z m444 22 c91 -38 101 -187 15 -231 -68 -35 -158 -5 -186
62 -27 65 4 140 70 169 40 17 59 17 101 0z m505 -1 c46 -24 70 -62 70 -112 0
-79 -51 -133 -125 -133 -116 0 -172 143 -88 222 45 41 93 49 143 23z m-2394
-15 c84 -41 98 -145 30 -207 -30 -28 -43 -33 -86 -33 -41 0 -55 5 -84 30 -90
79 -39 217 83 229 8 0 34 -8 57 -19z m7300 -469 c32 -20 64 -74 64 -110 0 -64
-69 -131 -135 -131 -104 0 -165 131 -98 210 14 18 36 36 47 40 36 15 90 11
122 -9z m-7248 -55 c34 -32 37 -39 37 -90 0 -47 -4 -59 -29 -85 -39 -41 -86
-56 -129 -42 -19 7 -47 25 -63 42 -25 26 -29 38 -29 85 0 51 3 58 37 90 33 29
45 34 88 34 43 0 55 -5 88 -34z m7240 -416 c69 -43 78 -136 18 -196 -83 -83
-216 -28 -216 89 0 103 109 161 198 107z m-7267 -15 c89 -47 89 -183 0 -230
-61 -31 -136 -11 -171 48 -68 111 55 242 171 182z m470 -1 c45 -23 73 -91 59
-143 -21 -78 -107 -119 -176 -85 -53 27 -79 66 -78 118 2 100 104 157 195 110z
m-470 -519 c99 -52 87 -198 -19 -235 -145 -50 -240 151 -109 230 39 24 87 25
128 5z m470 -1 c45 -23 73 -91 59 -143 -21 -78 -107 -119 -176 -85 -53 27 -79
66 -78 118 2 100 104 157 195 110z m6799 -463 c14 -9 33 -34 44 -55 24 -50 15
-99 -29 -143 -28 -28 -40 -33 -79 -33 -85 0 -136 47 -136 125 0 54 25 94 73
116 47 21 87 18 127 -10z m467 19 c24 0 73 -52 83 -88 23 -84 -33 -162 -116
-162 -82 0 -136 50 -136 125 0 75 71 142 137 129 11 -2 25 -4 32 -4z m-8230
-516 c36 -23 56 -62 56 -108 0 -138 -188 -177 -244 -50 -16 36 -18 50 -10 82
24 86 122 124 198 76z"/>
<path d="M6190 11409 l0 -1334 165 -165 165 -165 0 -174 0 -175 -150 -151
-150 -151 0 -97 0 -97 538 0 538 0 97 -99 97 -98 0 -382 0 -381 175 0 175 0 0
288 c0 161 4 294 10 302 5 8 125 131 267 272 l258 258 140 0 140 0 250 -250
250 -250 413 0 c371 0 414 2 408 16 -3 8 1 31 9 51 8 19 15 39 15 44 0 5 -146
9 -328 9 l-327 0 -160 160 c-100 100 -177 169 -204 182 -33 16 -48 31 -63 65
-24 54 -17 92 24 138 52 60 140 56 194 -8 24 -29 26 -37 21 -98 l-6 -66 122
-121 122 -122 326 0 326 0 12 57 c6 31 11 76 11 99 l0 43 -49 -1 c-57 -2 -92
17 -122 65 -55 88 31 209 135 190 23 -5 26 -2 26 21 0 60 -12 66 -117 66 l-97
0 -93 -93 c-84 -84 -93 -97 -93 -130 0 -58 -51 -108 -116 -114 -61 -5 -103 18
-128 72 -23 48 -15 95 25 140 39 44 84 53 146 30 l45 -17 92 91 91 91 108 0
107 0 0 29 c0 25 -5 30 -35 35 -49 9 -103 59 -111 102 -9 49 2 82 42 122 27
27 34 41 29 59 -5 21 -11 23 -73 23 l-67 0 -78 -78 c-59 -60 -77 -84 -77 -106
0 -128 -196 -159 -246 -39 -41 98 59 208 157 174 33 -11 34 -11 114 69 l80 80
73 0 c62 0 72 2 72 18 -1 9 -20 69 -44 132 l-42 115 -53 3 -53 3 -264 -262
c-144 -144 -268 -275 -273 -290 -6 -16 -16 -43 -23 -60 -31 -82 -171 -93 -220
-17 -69 107 38 244 153 195 l34 -15 280 279 c279 277 281 279 323 279 23 0 42
2 42 5 0 3 -30 64 -66 137 l-66 131 -18 -31 c-38 -62 -120 -80 -181 -39 -47
31 -61 62 -55 122 l4 50 -94 96 -94 96 0 177 0 177 -40 42 -39 42 -1 -169 0
-169 -125 -127 -125 -127 0 -179 0 -179 -340 -340 c-328 -327 -340 -341 -340
-378 0 -81 -54 -137 -131 -137 -142 0 -179 195 -46 244 23 9 57 15 75 13 30
-2 54 19 357 323 l325 325 0 175 1 175 124 130 124 130 1 202 0 202 -31 36
c-17 19 -35 35 -40 35 -5 0 -9 -102 -9 -233 l0 -232 -150 -150 c-134 -134
-150 -153 -150 -183 0 -19 9 -47 21 -63 47 -66 28 -154 -42 -191 -41 -22 -68
-23 -114 -4 -95 40 -98 183 -5 231 25 13 30 21 30 52 0 33 12 49 155 193 l155
157 0 265 c0 224 -2 268 -15 278 -13 11 -15 -9 -15 -170 l0 -182 -71 -73 -70
-73 6 -48 c14 -115 -103 -194 -196 -131 -18 12 -39 34 -46 47 -16 32 -16 88 0
120 18 36 74 70 116 70 31 0 45 9 96 60 l60 61 3 199 c2 127 -1 206 -7 219
-12 22 -118 110 -229 191 l-73 52 -25 -23 -24 -22 0 -551 0 -550 -86 -88 c-67
-68 -85 -92 -78 -105 33 -76 0 -157 -74 -183 -145 -50 -240 151 -109 230 18
11 43 20 57 20 18 0 48 23 108 83 l82 82 0 555 0 554 27 28 c30 31 25 42 -32
72 l-36 20 -59 -59 -60 -59 0 -392 0 -391 38 -24 c52 -34 72 -92 52 -151 -28
-79 -117 -111 -187 -68 -74 45 -84 155 -19 209 14 12 16 65 16 438 l0 425 60
62 c33 35 60 66 60 69 0 9 -76 47 -93 47 -7 0 -46 -33 -85 -74 l-72 -74 0
-837 0 -837 72 -74 c71 -73 72 -74 123 -74 154 0 184 -202 38 -251 -28 -9 -43
-8 -78 6 -57 21 -85 65 -85 131 0 46 -2 50 -85 135 l-85 86 0 878 0 877 80 83
c63 64 78 84 68 93 -22 18 -162 82 -179 82 -10 0 -36 -22 -58 -49 l-41 -49 0
-532 0 -532 25 -30 c34 -40 41 -74 24 -122 -18 -53 -67 -86 -126 -86 -122 0
-169 178 -62 238 l29 17 0 543 0 543 52 55 c28 30 49 56 46 59 -8 8 -150 65
-163 65 -7 0 -33 -22 -59 -50 l-46 -49 0 -682 0 -682 164 -166 c134 -135 166
-174 177 -209 35 -120 -90 -218 -192 -149 -73 49 -80 134 -16 204 l20 23 -126
128 -127 128 0 722 0 723 45 48 c25 26 45 51 45 54 0 5 -117 47 -132 47 -4 0
-8 -370 -8 -822 l0 -823 83 -82 82 -83 5 -202 5 -202 80 -48 c48 -28 92 -47
111 -48 72 0 134 -80 120 -154 -9 -45 -57 -93 -102 -102 -49 -9 -104 14 -132
56 -20 29 -23 44 -19 87 l6 53 -82 48 -82 48 -3 204 -2 204 -85 87 -85 86 0
865 0 865 -37 11 c-20 6 -40 9 -45 6 -4 -3 -8 -388 -8 -856 l0 -851 65 -112
65 -112 0 -244 0 -244 213 -211 c143 -144 221 -214 241 -218 40 -10 83 -56 91
-100 19 -99 -89 -184 -180 -140 -65 31 -94 112 -63 179 11 25 5 32 -195 233
l-207 207 0 254 0 254 -65 113 -65 113 0 886 c0 588 -3 884 -10 880 -7 -4 -10
-403 -10 -1163 l0 -1158 -75 -74 c-71 -71 -75 -77 -75 -120 0 -108 -98 -171
-189 -122 -37 20 -71 73 -71 110 0 38 31 93 64 113 19 12 50 19 81 19 47 0 52
3 107 57 l58 57 0 1159 c0 917 -3 1158 -12 1161 -7 3 -25 7 -40 10 l-28 6 0
-767 c1 -647 3 -772 15 -793 8 -14 14 -45 15 -69 0 -37 -5 -49 -39 -82 -33
-33 -45 -39 -82 -39 -56 0 -106 30 -125 75 -19 46 -18 63 6 110 19 38 20 59
20 821 l0 782 -22 6 c-13 3 -35 6 -50 6 l-28 0 0 -928 0 -927 88 -88 c71 -70
93 -87 117 -87 68 0 125 -64 125 -140 0 -32 -7 -48 -33 -76 -28 -31 -41 -37
-83 -41 -37 -3 -57 1 -80 15 -37 24 -68 84 -61 121 5 23 -8 39 -96 129 l-102
102 -3 975 c-2 943 -3 975 -21 975 -10 0 -33 3 -50 6 l-31 7 0 -1334z m494
-2153 c51 -21 76 -60 76 -117 0 -42 -5 -55 -33 -85 -26 -28 -42 -37 -78 -41
-64 -7 -105 16 -131 73 -23 54 -18 91 20 135 41 49 86 60 146 35z m501 0 c45
-19 75 -69 75 -124 0 -94 -115 -154 -198 -102 -34 21 -62 72 -62 112 0 37 34
90 71 110 41 22 68 23 114 4z m485 -6 c8 -5 26 -20 40 -35 20 -22 25 -37 25
-80 0 -46 -4 -58 -29 -84 -36 -38 -84 -53 -129 -40 -18 5 -46 23 -63 40 -25
26 -29 38 -29 84 0 46 4 58 30 85 43 45 102 57 155 30z m495 6 c63 -27 94
-114 62 -176 -18 -35 -74 -70 -114 -70 -70 0 -133 59 -133 125 0 44 31 96 71
117 41 22 68 23 114 4z"/>
<path d="M2923 12142 l157 -158 0 -245 0 -244 140 -140 140 -140 0 -142 0
-143 30 -32 29 -33 1 190 0 190 -145 145 -145 145 0 210 0 210 -173 173 c-95
94 -176 172 -182 172 -5 0 62 -71 148 -158z"/>
<path d="M2400 12133 c0 -4 74 -82 165 -173 120 -122 165 -161 165 -146 0 14
-54 75 -153 174 -135 135 -177 169 -177 145z"/>
<path d="M2292 12078 c-9 -9 14 -38 103 -128 l115 -117 0 -425 0 -425 64 -61
64 -62 201 0 201 0 0 72 0 72 -155 156 -155 156 0 -70 0 -71 49 -23 c131 -60
93 -242 -50 -242 -42 0 -55 5 -85 33 -30 28 -37 42 -41 83 -4 41 -1 55 21 87
l26 38 0 307 0 307 -163 163 c-89 89 -167 162 -173 162 -5 0 -15 -5 -22 -12z"/>
<path d="M9310 10955 l0 -90 78 -78 c74 -73 81 -78 116 -75 l38 3 -91 135
c-49 74 -101 149 -115 165 l-25 30 -1 -90z"/>
<path d="M11315 6400 l-150 -150 -115 0 -114 0 -166 -165 -166 -165 -155 0
-155 0 -59 60 -59 60 -259 0 -260 0 -38 35 c-38 34 -40 35 -69 20 -68 -35
-157 -5 -192 65 -17 34 -18 16 -18 -490 l0 -526 53 -52 52 -52 645 -3 c355 -1
656 -6 669 -11 l25 -9 -23 31 c-19 27 -29 32 -65 32 -28 0 -52 7 -69 20 -14
11 -28 20 -32 20 -4 0 -18 -9 -32 -20 -18 -14 -41 -20 -79 -20 -45 0 -59 5
-89 31 -113 99 -18 287 126 249 38 -10 99 -69 99 -95 0 -20 49 -75 67 -75 11
0 13 7 8 33 -19 88 -49 163 -75 189 -27 27 -33 28 -121 28 l-92 0 -162 -159
c-90 -88 -176 -166 -191 -174 -84 -44 -179 -5 -205 84 -23 75 27 161 104 178
44 10 104 -9 134 -44 12 -14 26 -25 30 -25 5 0 62 54 128 120 l120 120 115 0
c120 0 140 6 140 42 0 17 -12 18 -147 18 l-147 0 -92 -90 -91 -90 -184 0 -185
0 -62 -63 c-59 -60 -62 -65 -62 -112 0 -32 -7 -62 -20 -82 -37 -62 -126 -84
-189 -47 -34 20 -71 85 -71 124 0 38 37 104 69 123 33 20 98 22 136 5 24 -11
30 -7 99 60 l74 72 184 0 183 0 85 85 85 85 196 0 c189 0 199 1 251 25 29 14
70 28 91 31 30 5 40 13 51 38 28 68 110 109 171 86 29 -11 31 -9 277 237 136
136 248 255 248 263 0 8 -5 22 -10 30 -8 12 -43 -19 -177 -152 l-168 -168
-100 0 -100 0 -145 -145 -144 -145 -281 -2 -280 -3 -6 -37 c-8 -53 -35 -87
-84 -109 -68 -30 -142 -4 -176 63 -25 48 -24 95 2 138 40 66 96 88 163 65 32
-12 105 -15 330 -15 l289 0 147 145 146 145 99 0 99 0 169 168 c165 165 168
169 156 195 -7 15 -17 27 -23 27 -6 0 -79 -67 -161 -150z"/>
<path d="M11418 6042 c-95 -94 -169 -174 -166 -178 14 -13 174 91 238 156 51
50 71 79 88 125 11 32 19 61 16 64 -2 2 -82 -72 -176 -167z"/>
<path d="M1427 4434 c-3 -3 26 -68 64 -143 64 -125 169 -374 169 -400 0 -15
12 -14 46 4 68 35 164 4 203 -65 58 -104 -17 -230 -136 -230 l-43 0 0 -130 0
-130 417 0 418 0 143 -142 142 -143 1853 -5 1852 -5 91 -52 90 -53 462 0 462
0 0 -370 0 -370 -788 0 -788 0 -54 33 -55 32 -5 210 -5 210 -525 0 -525 0 -5
-240 -5 -240 -364 -3 -365 -2 -181 180 -181 180 -1040 0 -1040 0 -32 -33 c-29
-30 -55 -97 -37 -97 4 0 18 9 31 19 80 63 221 8 240 -94 15 -82 -24 -151 -101
-180 -59 -23 -106 -13 -155 31 -47 43 -37 77 -85 -275 l-36 -264 30 -31 c54
-56 65 -119 31 -186 -11 -21 -33 -47 -50 -57 l-30 -17 0 -234 c0 -152 -4 -241
-11 -255 -6 -12 -37 -49 -69 -82 -53 -55 -59 -65 -69 -126 -18 -110 -27 -98
128 -172 l139 -66 39 38 c85 85 213 59 258 -51 11 -27 14 -54 10 -76 -6 -33 4
-51 28 -52 4 0 7 71 7 157 l0 157 -67 68 c-66 66 -66 67 -112 61 -59 -7 -110
14 -144 58 -51 68 -45 148 18 209 27 26 44 34 84 38 62 6 101 -9 140 -53 38
-44 47 -99 25 -154 l-17 -42 77 -78 76 -79 0 -190 c0 -186 1 -191 21 -197 14
-5 25 -2 30 6 5 8 8 168 7 357 l-3 343 -126 125 c-120 119 -127 124 -153 114
-42 -16 -78 -12 -126 12 -143 74 -87 288 75 288 112 0 181 -102 144 -210 l-12
-32 137 -137 136 -136 0 -388 c0 -380 0 -387 20 -387 19 0 20 7 20 223 l0 223
138 137 139 137 53 0 c47 0 57 4 95 39 55 50 106 60 168 33 139 -62 124 -249
-23 -293 -74 -22 -162 28 -187 106 -8 24 -16 31 -43 33 -31 3 -42 -6 -152
-115 l-118 -118 0 -217 c0 -205 1 -218 19 -228 11 -5 22 -10 25 -10 3 0 6 61
6 137 l0 136 115 116 114 116 199 3 199 3 53 54 54 55 1 74 c0 72 2 76 35 111
65 68 159 68 226 1 83 -83 42 -222 -75 -257 -38 -11 -50 -11 -89 4 l-46 16
-72 -69 -72 -70 -189 0 -188 0 -93 -93 -92 -92 0 -138 c0 -75 2 -137 4 -137 2
0 42 39 89 88 l86 87 0 56 c-2 119 88 197 193 169 118 -32 156 -174 69 -261
-48 -48 -97 -59 -165 -35 l-49 18 -63 -63 c-35 -35 -64 -69 -64 -76 0 -7 34
-23 77 -36 61 -20 83 -23 111 -15 49 14 97 2 136 -32 26 -23 43 -30 75 -30
l41 0 0 92 0 92 57 58 56 57 -2 60 c-2 67 13 107 54 140 68 53 153 47 212 -15
59 -63 56 -153 -6 -215 -47 -48 -98 -59 -161 -36 l-45 17 -47 -49 -48 -50 0
-75 0 -76 43 0 c43 0 46 3 195 152 l152 153 0 178 0 179 67 69 c66 69 67 70
64 122 -2 41 3 60 21 87 30 46 107 84 151 76 80 -15 137 -79 137 -154 0 -115
-111 -189 -219 -146 l-44 17 -53 -55 -54 -56 0 -174 0 -173 -130 -130 c-71
-71 -130 -133 -130 -137 0 -5 28 -8 63 -8 l62 0 124 124 123 124 -26 44 c-106
181 145 342 261 168 63 -92 -4 -224 -120 -237 -41 -5 -53 -14 -153 -114 l-109
-109 66 0 c53 0 69 4 84 20 43 48 140 50 194 5 24 -21 39 -25 95 -25 l66 0 0
878 0 878 168 167 168 167 376 0 c423 0 375 8 475 -82 l43 -38 1202 0 1201 0
149 147 c140 140 148 149 148 186 0 90 80 163 170 155 86 -8 140 -70 140 -160
0 -86 -65 -148 -155 -148 l-50 0 -165 -165 -165 -165 -1280 0 -1281 0 -54 55
-54 55 -321 0 -321 0 -122 -123 -122 -124 0 -841 0 -842 25 0 25 0 0 807 0
807 123 123 123 123 305 0 304 0 118 -118 117 -117 0 -53 c0 -50 2 -53 41 -78
130 -82 76 -274 -78 -274 -47 0 -96 29 -124 72 -32 52 -22 128 21 173 19 19
42 37 52 41 14 4 18 16 18 47 0 40 -5 47 -93 135 l-92 92 -280 0 -280 0 -103
-103 -102 -102 0 -788 0 -787 45 0 45 0 0 788 0 789 64 61 64 62 226 0 c271 0
312 -7 360 -61 32 -34 36 -45 36 -92 0 -92 -55 -149 -147 -149 -66 0 -114 37
-139 107 l-11 30 -132 3 c-90 2 -138 -1 -147 -9 -12 -10 -14 -135 -14 -770 l0
-759 44 0 c27 0 48 6 57 16 47 57 161 57 208 0 8 -9 29 -16 47 -16 l34 0 0 58
c0 56 -1 58 -60 119 -60 62 -61 62 -113 61 -63 -2 -110 21 -137 65 -33 53 -35
91 -9 144 28 55 74 83 135 83 102 0 178 -123 129 -210 -13 -24 -11 -28 61
-101 l74 -77 0 -71 0 -71 40 0 c22 0 40 4 40 9 0 5 16 19 36 31 50 31 133 25
172 -13 22 -21 38 -27 75 -27 l47 0 0 81 0 80 -56 59 -56 59 -36 -20 c-50 -26
-111 -25 -152 4 -122 83 -67 271 80 271 83 0 140 -57 148 -147 4 -52 8 -58 73
-123 l69 -68 0 -98 0 -98 65 0 c39 0 65 4 65 11 0 15 64 39 103 39 20 0 50
-10 71 -25 36 -24 76 -33 76 -17 0 4 -134 141 -298 305 l-298 297 -164 0 -164
0 -61 60 -61 61 -51 -12 c-46 -11 -55 -10 -95 10 -59 28 -92 85 -86 146 17
147 206 185 275 55 25 -48 28 -75 12 -117 -10 -26 -7 -31 44 -80 l55 -53 164
0 163 0 340 -340 c192 -193 347 -340 357 -340 13 0 18 8 18 28 0 22 -57 84
-333 360 l-332 332 -108 0 -108 0 -41 38 c-35 33 -41 46 -45 88 -9 88 42 154
125 162 99 9 167 -55 165 -155 -1 -44 2 -53 15 -53 10 0 180 -163 380 -363
346 -347 362 -364 362 -400 0 -30 4 -37 20 -37 18 0 20 7 20 57 l0 57 -365
366 -365 365 0 55 c0 53 -2 56 -57 112 l-57 58 -205 0 -205 0 -52 51 c-48 48
-55 51 -105 52 -38 2 -63 9 -85 24 -96 69 -78 217 31 258 57 22 104 14 150
-26 48 -43 62 -96 40 -162 l-16 -50 37 -38 38 -39 204 0 204 0 74 -72 74 -71
0 -61 0 -60 365 -366 365 -365 0 -73 c0 -65 2 -72 20 -72 18 0 20 7 20 77 l0
77 -288 290 c-158 159 -300 297 -317 306 -44 24 -79 98 -70 150 12 69 81 130
147 130 42 0 103 -38 126 -79 38 -68 26 -131 -35 -188 l-37 -33 272 -273 272
-272 0 -93 c0 -85 1 -92 20 -92 18 0 20 7 20 88 l0 87 -220 220 -220 220 0
245 0 246 -64 63 c-64 63 -65 64 -95 51 -18 -7 -51 -10 -75 -8 -79 9 -126 63
-126 145 0 85 58 143 144 143 96 0 153 -66 143 -165 l-5 -52 74 -74 74 -73 0
-245 0 -245 220 -221 220 -221 0 -102 0 -102 60 0 c47 0 68 5 91 23 22 16 45
22 79 22 34 0 57 -6 79 -22 35 -27 121 -33 121 -9 0 7 -24 36 -54 65 l-55 51
-68 0 -69 0 -237 238 -237 238 0 66 c0 65 -1 67 -34 87 -44 28 -70 82 -63 133
14 101 111 155 203 112 96 -46 99 -200 4 -249 -28 -15 -30 -19 -30 -73 l0 -58
213 -212 213 -212 70 0 71 0 76 -79 c47 -48 77 -87 77 -100 0 -14 6 -21 20
-21 16 0 20 7 20 33 0 29 -28 60 -280 312 l-280 280 0 215 0 215 -87 87 c-73
71 -91 85 -108 78 -60 -25 -154 5 -192 63 -47 69 -42 146 13 207 69 76 168 79
240 6 52 -51 64 -106 40 -176 l-15 -45 89 -90 90 -90 0 -215 0 -215 280 -280
280 -281 0 -52 c0 -48 2 -52 24 -52 31 0 36 15 36 115 l0 84 -49 48 c-88 86
-91 178 -10 255 67 64 162 62 227 -5 35 -36 52 -75 52 -118 0 -67 -53 -138
-117 -160 l-33 -11 0 -104 0 -104 68 0 c40 0 73 5 80 12 9 9 12 77 12 243 l0
231 -63 62 -63 62 -129 0 -129 0 -163 163 -163 163 0 136 c0 135 0 136 -24
142 -13 3 -39 23 -59 45 -64 71 -59 170 12 234 72 65 159 62 227 -7 49 -48 64
-109 44 -170 -12 -37 -80 -106 -105 -106 -13 0 -15 -20 -15 -123 l0 -122 143
-143 142 -142 129 0 130 0 83 -83 83 -83 0 -238 c0 -200 2 -237 14 -233 8 3
32 11 54 18 45 13 49 20 58 119 6 63 5 66 -25 94 -30 29 -31 31 -31 124 l0 95
-120 121 -120 122 -82 -1 c-72 0 -88 3 -117 24 -37 27 -71 91 -71 136 0 45 34
109 70 135 40 28 126 38 170 20 40 -16 77 -61 91 -110 10 -32 9 -52 -1 -96
l-13 -55 131 -132 132 -132 0 -95 c0 -53 4 -90 9 -85 17 19 31 131 31 246 l0
118 -35 17 c-94 44 -120 167 -51 242 38 43 74 55 143 49 61 -6 63 -5 69 19 13
49 -3 54 -188 54 l-170 0 -63 61 c-58 55 -65 59 -86 49 -32 -18 -124 -8 -157
17 -48 35 -73 91 -69 151 7 92 71 152 165 152 119 0 197 -107 158 -219 l-15
-44 47 -43 47 -43 165 -4 c91 -2 173 -5 183 -8 15 -3 24 11 48 75 39 107 100
231 143 291 l36 50 -52 3 c-51 3 -53 2 -107 -52 -51 -51 -54 -57 -43 -81 19
-41 15 -116 -8 -153 -32 -52 -75 -74 -140 -70 -68 5 -102 27 -131 86 -37 75
-14 148 62 200 29 20 43 23 89 19 l55 -5 68 67 67 66 177 3 c165 3 178 2 204
-17 18 -13 43 -21 70 -21 l42 0 -7 302 c-3 167 -9 515 -12 773 l-6 470 191
190 191 190 0 165 0 165 100 103 100 102 241 0 241 0 75 -72 c73 -72 75 -73
128 -73 62 0 100 -23 127 -76 34 -65 18 -132 -42 -183 l-32 -26 187 0 186 0
-40 38 c-44 42 -58 89 -43 145 10 34 8 36 -47 91 l-57 56 -148 0 -149 0 -86
85 -87 85 -290 0 -289 0 -113 -113 -112 -112 0 -155 0 -155 -238 -237 -237
-238 -539 0 -539 0 -72 40 -72 40 -1910 0 -1909 0 -162 163 -162 163 0 421 0
421 -31 26 -31 26 -582 0 c-321 0 -585 -3 -589 -6z m427 -52 c51 -30 71 -67
71 -132 0 -44 -5 -66 -21 -86 -52 -71 -124 -91 -196 -55 -57 28 -81 63 -86
126 -7 80 28 133 105 161 42 15 83 10 127 -14z m628 2 c14 -8 37 -28 50 -46
31 -44 33 -134 2 -174 -52 -71 -124 -91 -197 -55 -100 48 -122 174 -44 249 53
51 122 60 189 26z m-2 -496 c77 -53 99 -131 58 -207 -68 -127 -247 -103 -288
40 -36 125 122 240 230 167z m5690 -961 c130 -87 74 -287 -80 -287 -88 0 -155
67 -155 155 0 60 20 95 75 133 45 30 115 30 160 -1z m-2420 -456 c116 -84 79
-263 -60 -286 -52 -9 -125 25 -157 74 -53 80 -9 202 83 231 39 12 104 3 134
-19z m-3390 -13 c64 -33 85 -67 85 -138 0 -95 -57 -154 -150 -154 -175 0 -215
244 -50 302 46 16 67 14 115 -10z m470 0 c50 -26 90 -89 90 -143 0 -49 -40
-107 -90 -132 -55 -28 -82 -29 -136 -2 -129 62 -112 248 26 290 42 13 64 10
110 -13z m505 -8 c100 -62 89 -222 -19 -271 -52 -24 -80 -23 -133 1 -74 33
-108 117 -79 194 20 52 41 73 93 92 44 16 95 10 138 -16z m435 8 c113 -58 122
-194 17 -272 -38 -28 -125 -29 -164 0 -90 66 -99 179 -20 252 48 45 104 51
167 20z m1460 -7 c95 -68 93 -194 -3 -265 -38 -28 -126 -28 -164 0 -105 78
-97 214 17 272 51 26 108 24 150 -7z m-3369 -487 c38 -19 70 -67 76 -113 17
-124 -109 -217 -219 -162 -57 28 -81 63 -86 126 -11 130 112 210 229 149z
m513 -2 c51 -30 71 -67 71 -132 0 -63 -16 -95 -69 -134 -38 -29 -124 -29 -163
0 -46 35 -73 82 -73 131 0 124 126 196 234 135z m471 0 c34 -20 75 -93 75
-135 0 -15 -9 -45 -20 -67 -40 -79 -125 -109 -204 -70 -67 32 -92 82 -88 172
2 36 65 105 106 117 39 12 92 5 131 -17z m447 18 c111 -31 150 -179 69 -261
-85 -84 -227 -47 -262 69 -23 78 26 168 105 191 42 12 46 12 88 1z m504 -491
c63 -30 87 -75 82 -150 -4 -51 -9 -64 -38 -94 -65 -67 -163 -67 -227 1 -74 79
-49 200 51 245 53 24 80 24 132 -2z"/>
<path d="M8797 3922 l-77 -77 0 -170 0 -169 -190 -190 -189 -191 11 -730 c11
-790 10 -775 65 -775 25 0 25 1 10 18 -16 17 -17 84 -17 757 l0 739 185 186
185 186 0 155 0 155 68 67 68 67 134 0 135 0 73 -40 72 -41 0 -79 c0 -70 3
-82 26 -109 23 -28 32 -31 81 -31 l55 0 -32 26 c-56 48 -76 119 -48 179 11 24
8 30 -47 85 l-59 60 -216 0 -215 0 -78 -78z"/>
<path d="M8891 3825 l-41 -45 0 -157 0 -158 -185 -185 -185 -185 0 -702 0
-702 31 -36 c26 -29 38 -35 72 -35 l41 0 -57 58 -57 58 0 558 0 559 105 107
c100 101 105 108 95 134 -37 97 29 196 131 196 149 0 192 -199 59 -267 -33
-17 -53 -21 -83 -16 -38 6 -40 5 -138 -93 l-99 -99 0 -520 0 -520 78 -78 c76
-75 79 -77 127 -77 l50 0 -88 88 -87 87 0 465 0 465 338 337 337 338 577 0
c485 0 577 2 581 14 3 8 3 17 0 20 -4 3 -278 6 -611 6 l-604 0 -66 64 -67 63
-40 -18 c-94 -44 -195 23 -195 130 0 84 58 141 144 141 74 0 136 -69 136 -152
0 -28 11 -44 63 -96 l63 -62 596 0 c580 0 598 1 608 19 28 54 59 51 -580 51
l-591 0 -44 45 -45 44 0 76 0 75 -40 25 c-37 23 -48 25 -164 25 l-123 0 -42
-45z"/>
<path d="M9052 3007 l-322 -322 0 -425 0 -425 108 -108 108 -108 55 3 54 3 3
232 2 233 35 59 35 59 0 304 0 304 173 172 173 172 538 0 c487 0 538 2 532 16
-3 9 -6 18 -6 20 0 2 -244 4 -543 4 l-542 0 -243 -243 -242 -242 0 -127 0
-126 36 -21 c68 -40 88 -130 46 -204 -17 -28 -84 -67 -117 -67 -34 0 -100 39
-119 70 -39 67 -15 163 50 202 l34 20 0 147 0 147 263 262 263 262 542 0 c438
0 542 2 542 13 0 36 -12 37 -580 37 l-555 0 -323 -323z"/>
<path d="M9347 2932 l-147 -147 0 -299 0 -299 -35 -63 -35 -63 2 -218 c3 -210
4 -218 23 -218 19 0 20 8 23 234 l2 234 45 48 45 48 0 144 0 144 80 47 80 46
439 0 439 0 58 -60 c57 -59 59 -60 113 -60 38 0 66 -6 88 -20 76 -46 89 -155
25 -223 -55 -58 -146 -55 -200 7 -37 43 -47 92 -29 145 l14 40 -53 51 -53 50
-408 0 -408 0 -55 -33 -55 -33 -3 -140 -3 -139 -44 -46 -45 -45 2 -220 3 -219
44 -3 c73 -5 80 3 38 46 l-37 38 0 154 0 155 91 91 91 91 -21 34 c-27 44 -28
113 -1 156 41 67 142 85 201 36 34 -29 59 -78 59 -115 0 -36 -37 -102 -68
-120 -16 -10 -47 -20 -70 -24 -34 -5 -54 -20 -127 -95 l-87 -88 4 -126 3 -126
52 -50 52 -49 80 0 c45 0 81 4 81 9 0 16 -42 41 -68 41 -64 0 -123 60 -130
131 -8 90 50 159 134 159 110 0 173 -111 121 -212 l-24 -47 41 -41 c38 -36 46
-40 94 -40 29 0 52 3 52 7 0 4 -24 31 -52 61 l-53 53 -3 188 -3 188 75 57 75
58 -6 48 c-10 89 51 160 139 160 54 0 100 -27 121 -73 39 -81 10 -164 -69
-199 -42 -18 -49 -19 -90 -5 l-44 14 -67 -50 -66 -50 7 -156 7 -156 58 -59
c57 -57 60 -58 97 -51 l39 7 -44 21 c-56 27 -82 62 -88 118 -10 105 102 193
190 148 33 -17 68 -51 78 -76 6 -15 17 -23 33 -23 14 0 41 -14 61 -31 33 -30
38 -31 62 -18 15 8 35 35 48 66 26 57 71 93 117 93 51 0 196 207 232 329 33
112 35 108 -142 284 l-157 157 -135 0 -135 0 -23 -40 c-30 -53 -71 -74 -134
-68 -55 6 -92 33 -114 85 -19 44 -18 69 7 121 40 81 141 103 209 45 16 -13 32
-33 35 -43 6 -19 16 -20 157 -20 l151 0 149 -147 c81 -81 148 -142 148 -136 0
52 -60 287 -102 401 l-19 52 -407 0 -408 0 -71 -72 -72 -73 11 -40 c27 -98
-35 -185 -130 -185 -140 0 -193 180 -79 264 21 16 44 21 87 21 l58 0 80 78 80
77 405 0 c260 0 408 4 412 10 4 7 -177 10 -537 10 l-543 0 -148 -148z"/>
<path d="M10151 1755 c-22 -38 -15 -43 29 -20 33 17 36 25 18 43 -18 18 -24
15 -47 -23z"/>
<path d="M1350 457 c0 -1 -20 -101 -45 -222 -25 -121 -45 -223 -45 -227 0 -5
271 -8 603 -8 l602 1 -190 68 c-319 115 -525 200 -787 325 -76 35 -138 64
-138 63z"/>
</g>
</svg>
